<svg xmlns="http://www.w3.org/2000/svg" xmlns:xlink="http://www.w3.org/1999/xlink" viewBox="0 0 32 32"><defs><path id="a" d="M0 0h24.954v32H0z"/></defs><g fill="none" fill-rule="evenodd" transform="translate(2)"><mask id="b" fill="#fff"><use xlink:href="#a"/></mask><path fill="#EC008C" d="M23.13 20.11a20.37 20.37 0 01-2.75 2.93c-.15.11-.23.1-.13-.02 3.48-3.86 7.26-12.41 2.36-20.85 0 0-1.93 1.36-3.52 4.18-1.57-2.45-3.85-4.51-6.7-6.35 0 0-7.18 8.14-4 19.94-9.16 1.28-5.84 8.48-4.38 9.52.06.04.12.02.03-.13a4.66 4.66 0 011.01-6.3c1.6-1.45 4.93-1.83 4.93-1.83-.75-5.66-.7-10.78 3.1-16.44.5.32 6.06 2.81 6.27 11.2.46 5.25-2.22 9.45-4.82 11.09-4.62 2.52-9.8 3.75-14.3 4.83-.38.09-.23.13.02.12 10.7-.46 20.2-5.35 23.86-10.02.7-.9 1.02-1.88.54-2.43-.47-.55-1.33.33-1.52.56m-1.73-6.86c-.15-1.7-.54-3.25-1.14-4.68a8.44 8.44 0 012.09-2.98s2.17 5.66.26 11.47c-1.18 3.6-2.59 5.77-3.35 6.7-.17.21-.32.28-.22.15 1.78-2.44 2.76-6.33 2.36-10.66" mask="url(#b)"/></g></svg>