<svg xmlns="http://www.w3.org/2000/svg" viewBox="0 0 230 70" preserveAspectRatio="xMinYMid"><path d="M90.2 38.4h7v2.8h-7zM62.8 41.1v-5.6h5.9v-2.7h-5.9v-5.4h-3.2v14.2c0 4.1 1.9 5.8 6.3 5.8h4.7v-2.7h-3.8c-2.5-.1-4-.2-4-3.6M48.5 33c-3.2 0-8 0-8 6.8v7.6h3v-7.2c0-3.5 1.1-4.4 5-4.4s5 1 5 4.4v7.2h3.1v-7.6c0-6.8-5.1-6.8-8.1-6.8M18.8 33l-5.2 10.7-5.2-10.6V33H4.9l7.2 14.3.1.1H15L22.3 33zM90.2 41.1h7.1M190 40.2c0-7.2-5.3-7.2-7.9-7.2-2.3 0-7.7 0-7.7 7.2s5.4 7.2 7.7 7.2h7.2v-2.7h-7.2c-3.6 0-4.4-.9-4.6-3.5H190v-1zm-12.3-1.8c.3-1.8 1.1-2.7 4.4-2.7 3.5 0 4.4.9 4.6 2.7h-9zM147.3 43.7l-5.1-10.6-.1-.1h-3.5l7.3 14.3v.1h2.9l7.3-14.4h-3.5zM108 33c-4.3 0-8.2.5-8.2 7.2v11.6h3.1v-5.1c1.5.7 3.4.8 5 .8 4.3 0 8.2-.5 8.2-7.2.1-6.7-3.8-7.3-8.1-7.3m0 11.6c-4.8 0-5-.9-5-4.4 0-3.4.2-4.4 5-4.4s5 1 5 4.4c0 3.5-.2 4.4-5 4.4M118.9 39.8v7.6h3.1v-7.2c0-3.3.2-4.4 5-4.4h3.3V33h-2.9c-4.3 0-8.5 0-8.5 6.8M164.3 33c-2.3 0-7.7 0-7.7 7.2s5.4 7.2 7.7 7.2h7.2v-2.7h-7.2c-3.6 0-4.4-.9-4.6-3.5h12.4v-.9c.1-7.3-5.2-7.3-7.8-7.3m-4.4 5.4c.3-1.8 1.1-2.7 4.4-2.7 3.5 0 4.4.9 4.6 2.7h-9zM79.7 33c-2.3 0-7.7 0-7.7 7.2s5.4 7.2 7.7 7.2h7.2v-2.7h-7.2c-3.6 0-4.4-.9-4.6-3.5h12.4v-.9c.1-7.3-5.2-7.3-7.8-7.3m-4.4 5.4c.3-1.8 1.1-2.7 4.4-2.7 3.5 0 4.4.9 4.6 2.7h-9zM30 33c-2.3 0-7.7 0-7.7 7.2s5.4 7.2 7.7 7.2h7.2v-2.7H30c-3.6 0-4.4-.9-4.6-3.5h12.4v-.9C37.9 33 32.6 33 30 33m-4.4 5.4c.3-1.8 1.1-2.7 4.4-2.7 3.5 0 4.4.9 4.6 2.7h-9zM134.7 27.4c-.9 0-1.7.8-1.7 1.7 0 .9.7 1.7 1.7 1.7.9 0 1.7-.8 1.7-1.7 0-1-.8-1.7-1.7-1.7M133.1 33h3.1v14.3h-3.1z"/><path d="M224.6 35.6c-.4-.1-1.2.2-1.7.9-1.3 1.6-2.3 2.8-3.9 3.9 4.4-4.6 9.6-15.7 3.2-26.7 0 0-2.5 1.7-4.5 5.3-2-3.1-4.9-5.7-8.6-8.1 0 0-9.2 10.3-5.1 25.3-12.3 1.7-7.1 11.6-5.4 12.2 0 0-3.4-4.3 1.1-8.3 2-1.8 6.3-2.3 6.3-2.3-1-7.2-.9-13.7 4-20.9.6.4 7.8 3.6 8 14.2.6 6.7-2.8 12-6.2 14.1-5.8 3.1-12.1 4.7-19 6.3 13.2 0 26.2-6.6 31.3-12.7 1.8-2 1-3.1.5-3.2zm-3.9-7.8c-.2-2.2-.7-4.1-1.5-5.9 1.3-2.8 2.7-3.8 2.7-3.8s2.8 7.2.3 14.6c-1.9 5.6-3.8 8-4.6 8.8 3.3-4.8 3.4-10.2 3.1-13.7z" fill="#ec008c"/></svg>